<?xml version="1.0" standalone="no"?>
<!DOCTYPE svg PUBLIC "-//W3C//DTD SVG 20010904//EN"
 "http://www.w3.org/TR/2001/REC-SVG-20010904/DTD/svg10.dtd">
<svg version="1.0" xmlns="http://www.w3.org/2000/svg"
 width="483.000000pt" height="483.000000pt" viewBox="0 0 483.000000 483.000000"
 preserveAspectRatio="xMidYMid meet">
<metadata>
Created by potrace 1.11, written by Peter Selinger 2001-2013
</metadata>
<g transform="translate(0.000000,483.000000) scale(0.100000,-0.100000)"
fill="#000000" stroke="none">
<path d="M2427 3404 c-1 -1 -36 -4 -77 -8 -97 -8 -150 -16 -175 -26 -11 -5
-45 -16 -75 -25 -30 -10 -90 -35 -134 -56 -43 -22 -87 -39 -97 -39 -11 0 -19
-6 -19 -14 0 -8 -10 -18 -22 -22 -22 -7 -72 -42 -161 -113 -23 -18 -52 -38
-64 -44 -13 -5 -25 -18 -28 -27 -3 -10 -27 -35 -52 -56 -26 -22 -61 -52 -79
-69 -18 -16 -59 -52 -90 -80 -31 -27 -69 -60 -83 -73 -28 -25 -230 -127 -283
-143 -92 -28 -161 -46 -217 -55 -19 -3 -45 -10 -58 -15 -14 -5 -47 -9 -74 -9
-27 0 -49 -4 -49 -9 0 -4 -19 -9 -42 -9 -34 -1 -212 -37 -332 -67 -48 -12
-146 -51 -146 -57 0 -5 -10 -8 -22 -8 -29 0 -49 -13 -40 -25 19 -27 128 -64
232 -79 33 -5 177 -38 200 -46 32 -12 59 -16 155 -25 44 -4 89 -9 100 -11 11
-3 92 -9 180 -14 230 -15 312 -20 380 -25 112 -7 619 -19 775 -17 325 2 988
13 1045 17 33 2 121 4 195 3 74 0 169 -1 210 -1 87 0 365 12 401 18 27 4 183
17 244 20 22 1 63 5 90 9 28 4 66 9 85 11 119 13 265 38 268 46 2 5 19 9 37 9
19 0 36 4 39 9 3 4 34 14 68 20 91 17 98 20 98 41 0 13 -13 23 -42 34 -80 28
-173 55 -213 61 -22 4 -53 16 -68 27 -21 15 -32 17 -40 9 -14 -14 -64 -14 -72
-1 -4 6 6 10 22 11 42 1 -65 34 -152 46 -194 29 -391 81 -490 130 -76 38 -105
59 -105 78 0 7 -10 19 -22 28 -22 14 -202 192 -263 260 -17 18 -46 44 -65 58
-19 13 -49 39 -66 57 -17 17 -35 32 -41 32 -7 0 -25 14 -41 30 -17 17 -36 30
-42 30 -6 0 -34 13 -63 29 -63 35 -165 79 -198 84 -14 3 -40 11 -59 19 -33 14
-82 24 -170 35 -34 4 -190 10 -193 7z m225 -558 c17 -9 36 -16 41 -16 33 0
129 -63 186 -121 77 -77 82 -84 122 -166 17 -35 35 -65 40 -68 4 -3 6 -12 2
-21 -3 -8 6 -32 21 -54 14 -22 26 -42 26 -44 0 -2 -20 -12 -45 -21 -45 -18
-45 -18 -79 8 -24 19 -37 39 -45 74 -41 163 -149 282 -303 334 -53 18 -78 20
-158 16 -60 -3 -110 -11 -135 -23 -22 -10 -43 -17 -47 -16 -5 1 -8 -2 -8 -8 0
-5 -5 -10 -10 -10 -21 0 -136 -113 -146 -142 -3 -10 -10 -18 -15 -18 -5 0 -9
-5 -9 -11 0 -6 -15 -51 -32 -99 -36 -98 -58 -118 -117 -105 -44 10 -55 27 -33
56 10 13 45 74 77 136 61 119 119 190 198 242 64 43 150 81 201 88 23 3 43 7
45 9 11 10 195 -6 223 -20z m-17 -121 c28 -10 57 -25 65 -34 8 -9 26 -22 40
-29 14 -7 47 -42 75 -77 48 -62 72 -111 81 -170 3 -16 13 -47 23 -67 15 -30
16 -38 5 -38 -8 0 -14 6 -14 13 0 9 -2 9 -8 -1 -5 -7 -24 -15 -43 -17 -58 -8
-620 -7 -689 0 -89 10 -89 10 -96 17 -3 4 -13 4 -21 1 -13 -5 -12 -1 2 21 10
15 15 29 11 33 -3 3 -1 12 5 20 6 7 9 13 5 13 -13 0 44 130 78 178 37 51 128
122 157 122 9 0 19 3 23 8 34 34 215 39 301 7z"/>
<path d="M1749 2059 c-20 -12 -4 -139 25 -204 14 -30 26 -60 26 -65 0 -6 4
-10 8 -10 5 0 14 -10 19 -22 20 -44 124 -147 191 -191 97 -63 141 -87 161 -87
9 0 21 -4 27 -9 25 -23 163 -45 279 -44 162 1 237 17 365 77 102 49 229 152
288 237 53 75 108 245 96 293 -7 30 -1 29 -184 27 -123 -2 -125 -2 -145 -29
-60 -81 -139 -142 -230 -179 -63 -25 -82 -28 -180 -28 -131 1 -141 3 -226 43
-65 31 -140 94 -191 161 l-25 33 -146 3 c-80 1 -151 -2 -158 -6z"/>
<path d="M2166 2039 c18 -30 129 -98 192 -119 137 -43 303 -9 408 85 27 24 44
44 37 45 -6 0 -15 -5 -18 -10 -14 -22 -133 -92 -183 -106 -70 -21 -155 -21
-226 0 -58 17 -124 48 -135 63 -8 11 -69 53 -76 53 -3 0 -3 -5 1 -11z"/>
</g>
</svg>
